# xmcd
#
# Track frame offsets:
#	150
#	11737
#	24435
#	39557
#	55818
#	67831
#	84912
#	93893
#	114559
#	126114
#	138230
#	152979
#	190059
#	202249
#
# Disc length: 2980 seconds
#
# Revision: 0
# Processed by: cddbd v1.5.2PL0 Copyright (c) Steve Scherf et al.
# Submitted via: EasyCDDAExtractor 16.0.6.1
#
DISCID=b40ba20e
DTITLE=Χορ. Κωνσταντινουπολιτών ιεροψαλτών - Παρακλητικός κανόνας Αγίου Σπυρίδ
DTITLE=ωνος
DYEAR=2009
DGENRE=Βυζ. Εκκλησιαστική
TTITLE0=Θεός ΚύριοςᾹπολυτίκιον-Θεοτοκίον
TTITLE1=Α' ωδή
TTITLE2=Γ' ωδή-Διάσωσον-Επίβλεψον
TTITLE3=Πρεσβεία θερμή-Δ' ωδή
TTITLE4=Ε' ωδή
TTITLE5=Στ' ωδή-Διάσωσον-Άχραντε
TTITLE6=Προστασία-Προκείμενον-Το στόμα μου λαλήσει
TTITLE7=Δόξα-Ταις του ιεράρχου-Ταις της Θεοτόκου-Ελέησον-Δοξαστικόν-Ότε καιρός
TTITLE8=Ζ' ωδή
TTITLE9=Η' ωδή
TTITLE10=Θ' ωδή
TTITLE11=Μεγαλυνάρια-Άξιον εστίν ως αληθώς
TTITLE12=Απολυτίκιον-Θεοτοκίον
TTITLE13=Εξαποστειλάρια
EXTD=
EXTT0=
EXTT1=
EXTT2=
EXTT3=
EXTT4=
EXTT5=
EXTT6=
EXTT7=
EXTT8=
EXTT9=
EXTT10=
EXTT11=
EXTT12=
EXTT13=
PLAYORDER=
